<mxfile host="app.diagrams.net" modified="2020-03-17T10:17:32.173Z" agent="Mozilla/5.0 (Windows NT 10.0; WOW64) AppleWebKit/537.36 (KHTML, like Gecko) Chrome/76.0.3809.87 Safari/537.36" etag="QuZ61jbNG-IgQS4j_-oF" version="12.8.5" type="github">
  <diagram name="Page-1" id="099fd60b-425b-db50-ffb0-6b813814b670">
    <mxGraphModel dx="1422" dy="713" grid="1" gridSize="10" guides="1" tooltips="1" connect="1" arrows="1" fold="1" page="1" pageScale="1" pageWidth="850" pageHeight="1100" background="#ffffff" math="0" shadow="0">
      <root>
        <mxCell id="0" />
        <mxCell id="1" parent="0" />
        <mxCell id="a1uwb7b-Ud3tWtIUcCcM-1" value="" style="triangle;whiteSpace=wrap;html=1;" vertex="1" parent="1">
          <mxGeometry x="200" y="280" width="60" height="80" as="geometry" />
        </mxCell>
        <mxCell id="a1uwb7b-Ud3tWtIUcCcM-2" value="" style="endArrow=none;html=1;" edge="1" parent="1">
          <mxGeometry width="50" height="50" relative="1" as="geometry">
            <mxPoint x="270" y="350" as="sourcePoint" />
            <mxPoint x="320" y="300" as="targetPoint" />
          </mxGeometry>
        </mxCell>
        <mxCell id="a1uwb7b-Ud3tWtIUcCcM-3" value="" style="shape=image;verticalLabelPosition=bottom;labelBackgroundColor=#ffffff;verticalAlign=top;aspect=fixed;imageAspect=0;image=data:image/png,iVBORw0KGgoAAAANSUhEUgAAAPAAAADwCAYAAAA+VemSAAAcy0lEQVR4Xu2daWgkxRvGK973xhPFYxNPPDAJqCAiuqAfVLzBC3WjIoqiu1E8UDwiCopIoiCKqNl4KyqCguIHkxX86iaKflKzi4K3Jt53/jy1qZme/CdTT01XTfckT8Oiu/NWdfVT76/fquq3qzuMMbNGh1VgbGzMHH/88aVT48477zSDg4OlaxfboDvuuMPgGmIc4+PjZsWKFTGqWhR1dAjgaj8K4DQ+LYDT6IpaBXBGWwGcxtEEcBpdBfA8XQVwGkcTwGl0FcACOJ1nZWoWwOlk1hBaQ+h03jVXswBOJ7EAFsDpvEsAJ9dWAAvg5E6mCJxOYgEsgNN5lyJwcm0pgI877rhSJjiw6uDh/9q1a73mzCr0+vXrzejoqLeu2dlZ09EBeRsfiE6+g03kWLlypenq6mpYHdt+X5tCfi8iAi8Vn6UAjtkBIR0fy5YFgAE4diYQQPcdZW6/r+34Pab/sPrHPCdzjbFt2D4XwIFDaNaB2A4VwKxSG+1Y/QVwRtelIoYicBhMrHVM/xHAtaorAisCsxw2bSeAw6XTEDqjGSuGInC4ozElBDCjUq0N67OKwIrA4d4VWEIABwpmjH39knmFVAAL4HDvCiwhgAMFE8DNDUc0hA53NKaEAGZUas5nFYEVgcO9K7CEAA4UrKgIvHr1ajM5OdmwtWyGEmuHqOk72PkEE4Gnp6fNxMSE75T078w8Z2pqymzYsMFbJ9N+9jGM92RzBoz+yA7zZYix52Pbz940mO15WF9k7Hp6eszw8LD3clmfjRqBsZ8Uk7LobX2AQasTIQKaRpky6ZZUReSeXiwA7DkZ/dm6GDu2/SzAMfVn2o8UT1yD7xDAGYVYMZgI5hM+9PeYDsS0nwWAvQ4BzCq10U4Az9OLcSABXBVNANc6UMwbKIOyABbAC/qJInBVGg2hM27CiqE5MHMPThcBBLAAruuBAjgcTLZEzCGcABbAArjFX2YQwOytbqMdO4dng05M/Zkr0RxYc2DNgYlPqwhgzYHrgoJEDl+yCnMndjbMljrYBidWIgeSUJBw4zvYczLPNJkEB7QHSQ6dnZ0Nm6YIPG8Nhfk2Ens3WwqLWKwD+QBxv5f1MRj76I29TsYu5hye9VkNoTM9I4AZN621EcBVPQRwVQv2BqpUygxPMR2IRVkAC+B6viKAM6qwYgjg8AjA3qgYu5j6awitRay6Pqc5MINiczYCOPwGqiG0htB1aWNHLc2hWr+UABbAuZwxpgOxjq05sObAmgN7aGGjiQAOjwDsjYqxi6m/5sCaA2sOPDjIcBfNRgCH30A1B040B2Y/rsUkEsCxmZ1OGADYj5sxQ3tIx2wJxGrR39/v3XqHXURUBFYEzhWBi3AgBuAiAGC1YEJ5Ee1n2sXa6GWGeUoxkaKIOTDrtEwEZp1DAFeVKkJ/pp8EsABe0E8EsACu6xzs3Uy50MU6kAAuVn9FYEYBRWBFYL0PXPEBrUInWoVmRy2aA4fdtbWIVauXABbAuaZNzA2IvZkxKAtgAdx2Q1DGsWGjObDmwLnuxlrEKtaBBHCx+jM32lI/RmIuoAibmM+B2faz5yzrc2z2Opn2s3UxdrGH0Mw5i7Bh/SfqHLiIC2XOyYrBRDDmfLBhz8kAwNbFtJ8FgL1Opv1sXYwd2/6Y826mXbFt2D4XwIGLWGxHsR3AAMDWJYDDh9Bsf7baju1zASyAc/kmcwPKdYJ5hRWBawURwAI4F18COJd8CxZWBM5Iw4rBDEHZ7mLPyQDA1sW0n41g7HUy7WfrYuzY9msOnFFzqYjBAMA4mRaxWJXC7QSwhtALeo0ADgdKEThcM6YEO+rSHFhzYMafFrQRwLnka80cGNkjK4g3QJiPWDE2uCrWjpGvzFvSMLnEIZD46mPrwlCV2caHqY+ta+XKldG21GF9lvGfmL7InA82rM9SEZg9abvbMUPo2HMwH3DQlF2DYFJZY6fyMQCzw8GY+re7L7LtF8CBQ2gBXOtaAphFLY2dABbAdT2LjZoCOA2YbK0CWAALYJaWEtoJYAEsgEsIJtskASyABTBLSwntBLAAFsAlBJNtkgAWwAKYpaWEdgJYAAvgEoLJNqljbGxsljVe7Ha9vb2ms7Oz4WWyz4GXL19uuru7vZIhScN3sJlM69atMzMzMw2ra/dEjunpaTMxMeGTbMn83jHLPMhbMnL4L5QF2F/TRgtGfvaZLHPOdgeYucalZCOAA3tbANcKFvMGxKRSBnbXojcXwIFdLIAFcKDLJDUXwIHyCmABHOgySc0FcKC8AlgAB7pMUnMBHCivABbAgS6T1FwAB8orgAVwoMskNRfAgfIKYAEc6DJJzSmA169fbzZs2OBtSE9PjzcRAg/iJycnvXXFNGC3RGHazwKMRI6uri7vZaA+3xHzOTCu8cEHH/Sd0oyMjJjR0VGvHdN+tq6hoSHT19fX8JxsX7L6s9sGMTunMP7D+j/bfgpg1oGY53gsAF7PSWAQs/3sNjjMZbD6M3UtFRtWfwZMVrMi/EcAZ3qniA5gnEMAMyrV2gjgjB6sA8UEILzL8peI2X7WgZhWs/ozdS0VG1Z/ReBEEawIRxPARaie5pwCWBG4rmexc3jWgRj3VQRmVNIQekGVWAeKGcHCuyx/iZjtF8D5+yNPDaz+GkJrCF3Xz1gHYpyUvYEydS0VG1Z/ASyABXAJ7woCWHNgzYFLCCbbJAGcUQoLN0zGTX9/vzf7iF0EYjuKscMuFPhukO9g2o+stDVr1viqsudjzumtyBirPaM/U1eZbaCrL+MPGUroJ+ZghseYnvgO1n9Qj++cU1NTVIYbfQNq9ZY6RQDMiuHrSP2eVoEiPs7GXBHrP0z7mfPBhj0nlYnFnpSxE8CMSkvThgEg9p5ejNIsTEz7mfMJ4HkqsR3Aiiu7NAowAAjgWu0VgdP4omptQgEBXBWNDToCuAlHU5E0CghgAVzXs9i7WRq3VK2sAgJYAAtglpYS2glgASyASwgm2yQBLIAFMEtLCe0E8BIEuNWf9mCfY2veHX6HYAAOr7VxibL6D3udbb8KXdYOEMCsC1btBHC4ZgI4o1lZ3wcO79b2LCGAw/tNAAvgcK9JVEIAhwsrgBcxwP/995/ZZJNN7BWy+ymHu1C8EgI4XEsBvEgAzgL677//WnDxaptbIwDM+P9NN93U+8pbuBvFKSGAw3UUwIsAYMCZjbKAF7ACZAcw/s1BnY3M4S6TroQADtdWAC8CgAHpP//8YzbbbLMKsIi+80H1vWwe7j5xSwjgcD0FcJsA7CKpg9DB6YbOP/74o5mYmDAffPCB+fzzz833339vfvrpJxt1t912W7PHHnuYffbZxxx22GGmt7fXbL/99v8HeLj7xC0hgMP1pABG8kKsj0CxW4qw25gwUYV5Vuyk89XHtj/mc2A3f83Oa13EBawvv/yyee+998wvv/xittpqKxuN5x8oiyE16tphhx0M9D3rrLPM7rvvbqM2/h1/Nt98c/t3t/gV7lLNl2AAZrfUYX2W2VIHjxcZ/1+5cqXp7u5uKADri2z7KYCL2NaUBcAHHNRk62IciHVP9py++hxcuM4sVL/99pt56aWXLLwA0y1Oufnw/Hrx76gDgOK/f/75p63voosuMmeeeabZcsstKxG5qBVrRv8iXuj39VHI77HbL4Az6jMOxHZWTIBxTreiDBC/+uorc9ddd5lPP/3UbLfddub3338322yzTSXCugUt11YXUQEsym+xxRYGNwCUwdD7yCOPNLfffrut66+//rK/FwExo39sANj+jGUXu/0CuOQAZx0HkRbD48suu8zMzMzY/3dgI7ICTvybG2pny+LfEaUB56+//mrhhZ2LxIjATzzxhP132BRxCOCq6uyoVwC3AcBuiIxoefXVV1t4Gx1uiLxs2TKDP4jYWNACmPj7H3/8UZnnZudkO+20k3n88cftPLqIQwAL4Lp+xw5nGQdiHZs9p68+F1UxTL7uuuvMl19+6U3EcI+THnvsMbPjjjvaqAz4161bZ5577jm79zJgdTeG7Nx6v/32M/fee6+FnVlf8LU/5HdG/9hD0JD2xbCN3X5F4DaIwIiSL7zwghkZGaksNjVyJgCLSAtYcQP4+uuvzd57721Bxp+33nrLPPzwwxZSQAzgXfYW/osof+qpp8bw16A6BLAi8KKLwLigL774wlxxxRWViOh7FIGIuvXWW5unn37aDrcvvPBCc/TRR5vTTz/dHH744bae999/32CeBVs3P8a5MBf++++/zZNPPml22WWXIADzGgtgAbxoAHaPgwDb0NCQefvtt+21YSHKdwDIzs5O88wzz9i5LwBGPT/88IM55ZRTzMDAgE3uQOLHjTfeaGFH5MXhVqzPP/98c84559jzoS2I0qkPASyAFwXAgMg9/0VyxqWXXlpZXQacvggMEZBpBYARgS+44AL7/BfR9ptvvjGY52LFGVCOjo6a559/3g6nXb40zoHVaAzbATD+jvKpDwFcMMCIFEjTa3Tgro8I4DuQcePLakEdWCzyHWxWCzJpurq6orQ/zyKWAxhAIQvovvvus7C5lxQWStZwDcfviKoAGCvOANhFUoCIR0crVqww1157rS1y3nnn1bz84LK2cF6kXjJR39cHzO8MwJjb9/X1eatjM/mgQysPdhELH9HDH98RdREr5o4Wvoa735loxD5Ti9n+PADj2hykw8PDFmL83UHou2bA/t1335mjjjrKDo0nJydtRMa/ox4ka2A4jUWxgw8+2Lzyyivm0UcftcNqwI1oDNvTTjvN4KbmjtTplQzArF+w+rd6pZ0FmL1OAZxRqiwAu8c7gA1z1I8//tjOYbPZWG4F2a0ez+9w2LrcZ5ff7GzwGxaqTjrpJLNq1Sp7p8cnO5GJlY3ixxxzjLn11lsrw/nU82ABzGJbtRPAJQQ4G2Ex/8W8NXtgTopkC0RSHM1ERkCM4ehTTz1lozEWrDDsdhEJdR500EHm/vvvr5w6dbQSwAK4rgLtNIR2rwm6NEmAhXls9gBoDz30kI2ct912W1OZUy6iv/rqq/ZGcMYZZ9TkQCNq77bbbuaRRx6xp27FPFgAC+C2BxgXkH1BHwDjxYPsgewqRE6884sFqGZSHwEkcqLvvvtu+3rh9ddfX5kjA24Ml/fcc0+b8NGq1wsFsABedAC7IbTbYQP/RbIFcpbxqAfPa90LCW712i12ZffEmi+Me/cXj6lcne5tJffq4oEHHmgeeOCBml0+wl2MLyGAea0q6xmzviVNY2zGzuDgoLf2mItA3pPNGRDNL6T97Cro/Ot0z3/d3PaWW26xq8jZISzmxFg53muvvexrgPgdC1YuLdLthwUQm32Gi7JYxLr55pttE1PPf3EOAcx6fdVOi1gZzWLegJoFGM1xqY2ABi8kvPbaaxZgly2FFxuwOn3iiSeaDz/80L5eCJgdwCj/888/m5NPPtnu0oHn4FiwCjlQF+o9++yzKyvgIeWbsRXA4ap1jI+Pz/qK4XkhMnZ8R0wAkMjhS6pAe9iRAZzYd+BRii95BG/0MIkoeQDOvkz/7rvv2pf38RwXi02Y72LIjLeJADcWm+655x7z+uuv20UnzF1hB/tnn33Wzp+RSulL/qg3xMbw+ZBDDsk9hMZiG96A8h14pIXRRKMDNyJfshDKoy/xx3cwIwvWF33nwu9oO57txzo6sGYSq7KYALMAMB3A1lVEBFhIe7cajQgKR3RDZACJa0YUxsITki2wSn3llVfa5A03ZMb8GCmSWKgCwMxUI9uWnXfe2aZbxkihZKdgjB9GT4ToAAKND9Z/fPWk+F0AZ1QtE8DZzsZK8BtvvGHhdJvWYUiNSIzoe8QRR1iIcWfH3BhvESFCI5US7wFffPHFlU3dUW89mN2zZNSJKH755ZfbmwOOvI+QBHAKdDfWKYBLDrDbAwtAuWiILKrsns+YRiA/GPB99tlnds6M7WUx7UGkPvfccy2UDsSFAHZDd9iuWbPGPl6yTjL3hQdmtFPPVQWwAF5QAcap2CFQWSMwwHrxxRftnBdJHPg7YATIgBqQ4nkw/iAdEnAjuwrDYERgN4RuBLCLtBiiY4HshBNOqMDrIG7WDQVws8r5yykClzwCo3kAErACBORF4/8djG7FGkNo91wYu0wCXsD9ySefmBtuuMEbgRF1EcGxsn3VVVdVbhQuicPtVul3qf+3EMDNqMaVEcBtALB7uQEv5+PtIMDkhsEOMDfMBdz43WVTAfR6u1S6VxNd5AW8++67r908IDvc5tyosZUAjqFi/ToEcBsA7CIuoMOQ+JprrrFDZJeokf3iYHYnD5fvXG/hav7bTXhkB3iR5RX7EMCxFa3WJ4DbAGC3YAWQcSBa4iWGjz76yM558Xd3ZNMns4tV89cK8He8koiEj2OPPdbcdNNNFl4X7WNu7C6ABfCSXsQCVC4/GUJgiAyo33zzTbvS7FIn3edTWHfBIymsbuPZKmDOLnIxi4PseQQwq1S4XcsjMLJy8IjCd2BFGH98B+NocFBm6xRknDEZQ7424Xd25Zupq56Ni5DffvutfUb8zjvv2LeT3B5Wbh7rcqvdG07Qa9ddd7XfQ4ImyGzKahgz8rp2IwuOyYRjtMBQn8mwYuqCDfNxM9gxfsZsyQT/Z7Ia2X5oOcCssKwdIyxbV0y71ABn24qIjOE1Vpyx5xi+WDg9PW2HxwAaj56Q3LH//vubQw891BxwwAGVhS33SCrmtS+2utgRRMxMRFZDAcwqFWjXSoCzK9LZaOHmzm5enH2v17166F5TzJttFShPW5kL4ITdpQhcPzUSkrs5cb0FLNcl7FAtYReWvmoBnLCLBPBGgDGEdp8FdR//dtpkIc3+v1txdv9N2E1tXbUATth9AjihuKraKiCAEzqCAE4orqoWwKl9QACnVlj1KwIn9AEBnFBcVa0InNoHBHBqhVV/20dg9pkm8z5tmbdEYdrPujOrGVtfO9uxAMS8xpj6F9F+VgsqkYMVgwFAALNds3jsigCA9VlG5SLaz7QLNgI4oxRzA2KFjelA7DnLalcEADH1L6L9bF8KYAHM+krTdkUAIIAz3cWKwUQwDaGb5qBtCwrgdF2nCKwInM675moWwOkkFsACOJ13CeDk2gpgAZzcyRSB00ksgAVwOu9SBE6ubWkBxhYsa9eu9QrAfvOHydhi6/I2au5TmcyWQMzH2ZjzwYbZ0oWti9WfqQ87VTB9ydTF2rDbKDH1se0vQv/SAswOuxjo2LqYLVGYDg+xYW4sbH0x289qxrZtKdgVob8AznhWzA5gHVYAs0qV3y6m/7A3UAEsgOuSwTpQ+bFqXQsFcEZr1oE0hK6KVoQDtQ6P8p+pCP0VgRWBFYEj3RsEsCJwLlcqwoFyNXiRFS5Cf0VgRWBF4Eg3EgGsCJzLlYpwoFwNXmSFi9BfEVgRWBE40o2kEIDHxsZmfe3HB6Xwx3fguzz4Jk+jo7Oz0/T29vqqMvgIFP74Dibbia0L7UL7Gh24xoGBAV+zbFYU8xGuWB/9QoPw0Tjfx9nYLzEgk4nRlvlonFesOQN8n5jxDbY+xo5pP9uXjP8wbYIN67Mds8xzGPasS8AOwDGdzr5DHVMy5n1s9nxs+8uaiMJeJ9N+Vgv2nDHtBHCgmgK4VjAGAFbimENQ9pxM+wUwq2Yb2AlgAVwmN1UEDuwNASyAA10mqbkADpRXAAvgQJdJai6AA+UVwAI40GWSmgvgQHkFsAAOdJmk5gI4UF4BLIADXSapecf4+Lg3kYN9+M/aJb2iOpWz7erp6aESOVavXu29BDyTZZ4XI2HCd+Chvi9BA3WsWrXKTE5ONqxu2bJlVLIE2348YvEdbPuZx0hIFPJdI9qzfPlyKvko5mMkJPnMzMxE0Z/VjEql9HXQYvmdcSD2Wot4n5lpG7uxfhHtZ/SPPQKKCTCTSBNbfwGc8XrGgRhIYFMEAEzbYjsQk8jHasHoL4DnTWGMMd4hNOMYi8GGcSD2OlmnjQkA0zYBHD6HZzOxFIEZD0xoI4Cr4hZxA2L0VwRWBF7wFsA4EHv/KAIApm2KwIrAjJ+0pY0AVgSu57gaQrcJzgJYAAvgNoG1XjMFsAAWwALYKqA5cPjNgLmBahGriUUsdnuVsrLLfqiLcSBkyIyOjnovlXk85ED3VcbeDNiPazHJC+wHvdA238HWxeqPrYN8Bx7pMFsCMVqwH0pj+hxbUzFbLbF9TiVysJN4n6hF/c6KwThQ7AjAaFJE+5l2xbZh9I99TgZg9pwx28/2uQDO9A7TAQKYdedwO0b/8FoblxDAsRVNUB97N2McSAAn6KC5Khn9Y59dAMdWNEF9ArgqKnsDStAN3ioFcPjCn4bQGkJ7wWqVgQAWwHV9TRFYEXihm5CG0K26Pec4jwAWwAKYeN6Xg7GkRQWwABbAAtj6ALsIFPPZeRE3oKR31AUq1xy44Dkw80JzbMdgsl+KAIAFmJmDsXUx2sa+ATHtZ9pVZhtWf8b/Y7/OGXUVmrmA2B0lgMMUFcBhesFaAIdrRpcQwLRUSaYAisBV/ZkApgg8z18FsAAOUyDcWhE4XDO6hACmpVIEDpOqYi2AmxSOKSaAGZWqNpoDh+mlOXC4XkElBHCQXNEfg2kOrDlwmAdqDpxLL0XgcPk0hA7XjC6hCExLpTlwmFSaAzepV1CxpQBwyJYuviHt1NQUtSVQyDmDOiynMbulEbsN1ODgoLdFMSMwPrp2ySWXeM/JbkOkRI6MlEwqn4agtb7H3EC93hpgUIT+MQEOuFTKVAALYMpRFjISwGGLWLnErlNYAAvgXD4lgAVwcgdq95cZcgmUuLAAFsC5XIxxIAGcS+KGhRn9Y55dc+BaNTWE1hA6F18CWBE4uQMpAueSWBH4jjvsp3J8B/M2kq+O0N8VgRWBQ32mxl4RWBE4uQMpAueSWBFYEbhYB4oJ8PT0tJmYmPBeEPtBNSQJ+A58zIv5oNrQ0JDp7e1tWB3aPjAw4Dsl/TvzATFEaV+GGE7ItD+2/ugn34Hsqe7ubp+ZYT4uF1t/DaEDh9DeXpwzYG8azBCUrStmJhl7nTHtmPaz52M1Y+tj7Jj2s6vozPlgI4AFMOsrye0YANhGCOCMUmXOBW11BIvtQK1uf+wIwOrB2AlgRqVaG0VgReBwr0lUQgCHCyuABXC41yQqIYDDhRXAAjjcaxKVEMDhwgpgARzuNYlKCOBwYQWwAA73mkQlBHC4sFEBXr16NZXkEN7MhUswD+LZRwqMAyGRYHJy0nsJIyMjVPIFswqNRA788R39/f3ehIN169ZFTeTA1jW+A9vgbNiwwWdmhoeHvYkobFII+pLxDW+jjDFs+5GI0tfX17DK2PpHBZgRowibmADHfgzDAMxqVkQyPdN+Vn/2Ohk79tEnU1cR7WfaBRsBHDiEFsC1riWAWdTS2AlgAZzLswRwLvlyFxbAAjiXEwngXPLlLiyABXAuJxLAueTLXVgAC+BcTiSAc8mXu7AAFsC5nEgA55Ivd2EBLIBzOZEAziVf7sICWADnciIBnEu+3IUpgEM+dOXbOoXNpGHtGAXYD0UxmVjIymGyotgtdRgAmGuETbsncjBb0oRowWz3w3zcLGYfse1n/YcCmD1pu9sxALPXyGbvxHSOdgc4pv5sP/kCDuqJmdXFtov1HwEcOISO3QECuKqoAK5qIYBZ0gRwE0pVizA3INYZBbAAzuWMMR2IdVoGAPaiNIRmlaraaQgdrllpSwjg8K5hbkDszSym/uyVCGBWqTawi+lArNMyALDSKQKzSikChyvVBiUEcHgnMTcg9mYWU3/2ShSBWaXawC6mA7FOywDASqcIzCqlCByuVBuUEMDhncTcgNibWUz92Stp9wj8P0su5gFGpgLFAAAAAElFTkSuQmCC;" vertex="1" parent="1">
          <mxGeometry x="390" y="210" width="240" height="240" as="geometry" />
        </mxCell>
      </root>
    </mxGraphModel>
  </diagram>
</mxfile>
